<?xml version="1.0" encoding="UTF-8"?>
<!-- Generator: Adobe Illustrator 20.1.0, SVG Export Plug-In . SVG Version: 6.00 Build 0)  -->
<!DOCTYPE svg PUBLIC "-//W3C//DTD SVG 1.1//EN" "http://www.w3.org/Graphics/SVG/1.1/DTD/svg11.dtd">
<svg version="1.1" id="portrait" xmlns="http://www.w3.org/2000/svg" xmlns:xlink="http://www.w3.org/1999/xlink" x="0px" y="0px" width="360px" height="360px" viewBox="0 0 360 360" style="enable-background:new 0 0 360 360;" xml:space="preserve" preserveaspectratio="none">
<style type="text/css">
	.st0{fill-rule:evenodd;clip-rule:evenodd;fill:#F2F2F2;}
	.st1{fill:none;stroke:#CCCCCC;stroke-width:8;stroke-linecap:round;stroke-linejoin:round;stroke-miterlimit:10;}
</style>
<rect id="bg" class="st0" width="360" height="360"/>
<g id="portrait_1_">
	<g>
		<line class="st1" x1="133.4" y1="262" x2="133.4" y2="227.9"/>
		<line class="st1" x1="226.6" y1="227.9" x2="226.6" y2="262"/>
	</g>
	<path class="st1" d="M179.5,94.4c-20.7,0-37.5,2.9-37.5,6.5v70c0,3.6,16.8,6.5,37.5,6.5s37.5-2.9,37.5-6.5v-70   C217,97.3,200.2,94.4,179.5,94.4z"/>
	<g>
		<path class="st1" d="M94,256l16.4-39.6c4.2-11.4,14.6-19.4,26.7-20.4c11.6-1,27.1-1.9,42.9-1.9"/>
	</g>
	<g>
		<path class="st1" d="M266,256l-16.4-39.6c-4.2-11.4-14.6-19.4-26.7-20.4c-11.6-1-27.1-1.9-42.9-1.9"/>
	</g>
	<path class="st1" d="M94,256c0,0,39,10,86,10s86-10,86-10"/>
</g>
</svg>